<svg fill="none" height="66" viewBox="0 0 60 66" width="60" xmlns="http://www.w3.org/2000/svg" xmlns:xlink="http://www.w3.org/1999/xlink"><clipPath id="a"><path d="m0 0h60v65.7627h-60z"/></clipPath><g clip-path="url(#a)" fill="#000"><path d="m13.3688 42.475 22.6232-37.76765-3.0137-4.70735-5.0466 3.23668-22.62311 37.76772 3.01364 4.7073z"/><path d="m22.3831 41.5577-1.2952 4.2898 4.5994 1.3901 22.7394-3.8661 1.2937-4.2912-4.5994-1.3887z"/><path d="m54.0765 27.5297-9.3628-15.1751-3.7157.3356.3488 3.878 9.3628 15.1751 3.7157-.3356z"/><path d="m21.9746 59.7428c0-1.7198-1.398-3.1188-3.1164-3.1188h-4.3387v8.8344h1.5218v-2.5982h2.4159l1.2177 2.5953h1.6648l-1.3339-2.8176c1.1834-.4698 1.9688-1.6124 1.9688-2.8966zm-3.1164 1.59h-2.8169v-3.18h2.8169c.8763 0 1.5887.713 1.5887 1.59s-.7124 1.59-1.5887 1.59z"/><path d="m44.9364 56.5912v5.3382l-6.1122-5.5366v9.0746h1.5262v-5.2383l6.1137 5.5336v-9.1715z"/><path d="m29.0242 58.1647h4.1702v-1.5288h-5.6964v8.8762h5.8231v-1.5288h-4.2969z"/><path d="m56.2367 56.6329h-1.5277v8.9136h1.5277z"/><path d="m60.0012 56.4569-.0015-1.1023-1.1819.0015-7.935 3.9377v1.1023l1.1819-.0015z"/><path d="m32.6351 60.7854v-1.1023l-1.1819.0015-5.4669 2.7132v1.1022l1.1819-.0015z"/><path d="m4.6695 56.3629-4.6113735 9.0225-.0581265.1163h1.67375l2.99575-5.7589 2.99426 5.7589h1.67375z"/><path d="m10.1243 62.5305v-1.1022l-1.18188.0015-4.75297 2.3835v1.1022l1.18191-.0015z"/></g></svg>